<svg width="46" height="43" viewBox="0 0 46 43" fill="none" xmlns="http://www.w3.org/2000/svg">
<ellipse cx="23.5" cy="40.375" rx="13.5" ry="2.5" fill="black"/>
<g opacity="0.4">
<path d="M23 22.875C30.3603 22.875 36.9122 23.8548 41.1221 25.375H46V29.375C46 32.9649 35.7025 35.875 23 35.875C10.2975 35.875 0 32.9649 0 29.375V25.375H4.87793C9.08783 23.8548 15.6397 22.875 23 22.875Z" fill="url(#paint0_radial_8598_14050)"/>
<g filter="url(#filter0_i_8598_14050)">
<ellipse cx="23" cy="25.375" rx="23" ry="6.5" fill="url(#paint1_radial_8598_14050)"/>
</g>
</g>
<path opacity="0.7" d="M12.9711 8.53125C15.1454 9.75406 18.9089 10.5625 23.1875 10.5625C27.4661 10.5625 31.2296 9.75406 33.4039 8.53125C34.6503 9.23244 35.375 10.0693 35.375 10.9688C35.375 13.4371 29.9182 15.4375 23.1875 15.4375C16.4568 15.4375 11 13.4371 11 10.9688C11 10.0693 11.7248 9.23244 12.9711 8.53125ZM13.7861 15.4375C16.0204 16.4304 19.4029 17.0625 23.1875 17.0625C26.9721 17.0625 30.3538 16.4304 32.5889 15.4375C34.3293 16.2094 35.375 17.2006 35.375 18.2812C35.375 20.7496 29.9182 22.75 23.1875 22.75C16.4568 22.75 11 20.7496 11 18.2812C11 17.2006 12.0457 16.2094 13.7861 15.4375ZM23.1875 8.9375C16.4568 8.9375 11 6.93712 11 4.46875C11 2.00037 16.4568 0 23.1875 0C29.9182 0 35.375 2.00037 35.375 4.46875C35.375 6.93712 29.9182 8.9375 23.1875 8.9375Z" fill="url(#paint2_linear_8598_14050)"/>
<defs>
<filter id="filter0_i_8598_14050" x="0" y="18.875" width="46" height="13" filterUnits="userSpaceOnUse" color-interpolation-filters="sRGB">
<feFlood flood-opacity="0" result="BackgroundImageFix"/>
<feBlend mode="normal" in="SourceGraphic" in2="BackgroundImageFix" result="shape"/>
<feColorMatrix in="SourceAlpha" type="matrix" values="0 0 0 0 0 0 0 0 0 0 0 0 0 0 0 0 0 0 127 0" result="hardAlpha"/>
<feOffset/>
<feGaussianBlur stdDeviation="3.39231"/>
<feComposite in2="hardAlpha" operator="arithmetic" k2="-1" k3="1"/>
<feColorMatrix type="matrix" values="0 0 0 0 0.65098 0 0 0 0 0.980392 0 0 0 0 1 0 0 0 0.5 0"/>
<feBlend mode="normal" in2="shape" result="effect1_innerShadow_8598_14050"/>
</filter>
<radialGradient id="paint0_radial_8598_14050" cx="0" cy="0" r="1" gradientTransform="matrix(0 9.36667 -121.539 -0.000170157 28.75 26.5083)" gradientUnits="userSpaceOnUse">
<stop offset="0.705562" stop-color="#004674"/>
<stop offset="1" stop-color="#006ABB"/>
</radialGradient>
<radialGradient id="paint1_radial_8598_14050" cx="0" cy="0" r="1" gradientUnits="userSpaceOnUse" gradientTransform="translate(23 25.375) scale(23 6.5)">
<stop stop-color="#1C68B4"/>
<stop offset="1" stop-color="#1592EC"/>
</radialGradient>
<linearGradient id="paint2_linear_8598_14050" x1="23.1875" y1="0" x2="23.1875" y2="22.75" gradientUnits="userSpaceOnUse">
<stop stop-color="#ACB4B9"/>
<stop offset="1" stop-color="#4D9DCE"/>
</linearGradient>
</defs>
</svg>
