<svg width="50" height="50" viewBox="0 0 50 50" fill="none" xmlns="http://www.w3.org/2000/svg">
<circle cx="25" cy="25" r="23" fill="url(#paint0_radial_8535_17069)" fill-opacity="0.6"/>
<mask id="path-2-inside-1_8535_17069" fill="white">
<path d="M50 25C50 38.8071 38.8071 50 25 50C11.1929 50 0 38.8071 0 25C0 11.1929 11.1929 0 25 0C38.8071 0 50 11.1929 50 25Z"/>
</mask>
<g clip-path="url(#paint1_angular_8535_17069_clip_path)" data-figma-skip-parse="true" mask="url(#path-2-inside-1_8535_17069)"><g transform="matrix(0 0.025 -0.025 0 25 25)"><foreignObject x="-1028" y="-1028" width="2056" height="2056"><div xmlns="http://www.w3.org/1999/xhtml" style="background:conic-gradient(from 90deg,rgba(84, 136, 236, 0.4254) 0deg,rgba(84, 137, 237, 0) 152.886deg,rgba(84, 136, 236, 1) 153.479deg,rgba(84, 136, 236, 0.4254) 360deg);height:100%;width:100%;opacity:0.2"></div></foreignObject></g></g><path d="M50 25H49.3C49.3 38.4205 38.4205 49.3 25 49.3V50V50.7C39.1937 50.7 50.7 39.1937 50.7 25H50ZM25 50V49.3C11.5795 49.3 0.7 38.4205 0.7 25H0H-0.7C-0.7 39.1937 10.8063 50.7 25 50.7V50ZM0 25H0.7C0.7 11.5795 11.5795 0.7 25 0.7V0V-0.7C10.8063 -0.7 -0.7 10.8063 -0.7 25H0ZM25 0V0.7C38.4205 0.7 49.3 11.5795 49.3 25H50H50.7C50.7 10.8063 39.1937 -0.7 25 -0.7V0Z" data-figma-gradient-fill="{&#34;type&#34;:&#34;GRADIENT_ANGULAR&#34;,&#34;stops&#34;:[{&#34;color&#34;:{&#34;r&#34;:0.32941177487373352,&#34;g&#34;:0.53725492954254150,&#34;b&#34;:0.92941176891326904,&#34;a&#34;:0.0},&#34;position&#34;:0.42468363046646118},{&#34;color&#34;:{&#34;r&#34;:0.33011278510093689,&#34;g&#34;:0.53559678792953491,&#34;b&#34;:0.92788463830947876,&#34;a&#34;:1.0},&#34;position&#34;:0.42633035778999329}],&#34;transform&#34;:{&#34;m00&#34;:3.0616171049931400e-15,&#34;m01&#34;:-50.0,&#34;m02&#34;:50.0,&#34;m10&#34;:50.0,&#34;m11&#34;:3.0616171049931400e-15,&#34;m12&#34;:-3.0616171049931400e-15},&#34;opacity&#34;:0.20000000298023224,&#34;blendMode&#34;:&#34;NORMAL&#34;,&#34;stopsVar&#34;:[{&#34;color&#34;:{&#34;r&#34;:0.32941177487373352,&#34;g&#34;:0.53725492954254150,&#34;b&#34;:0.92941176891326904,&#34;a&#34;:0.0},&#34;position&#34;:0.42468363046646118},{&#34;color&#34;:{&#34;r&#34;:0.33011278510093689,&#34;g&#34;:0.53559678792953491,&#34;b&#34;:0.92788463830947876,&#34;a&#34;:1.0},&#34;position&#34;:0.42633035778999329}],&#34;visible&#34;:true}" mask="url(#path-2-inside-1_8535_17069)"/>
<mask id="path-4-inside-2_8535_17069" fill="white">
<path d="M46 25C46 36.598 36.598 46 25 46C13.402 46 4 36.598 4 25C4 13.402 13.402 4 25 4C36.598 4 46 13.402 46 25Z"/>
</mask>
<g clip-path="url(#paint2_angular_8535_17069_clip_path)" data-figma-skip-parse="true" mask="url(#path-4-inside-2_8535_17069)"><g transform="matrix(0 0.021 -0.021 0 25 25)"><foreignObject x="-1033.33" y="-1033.33" width="2066.67" height="2066.67"><div xmlns="http://www.w3.org/1999/xhtml" style="background:conic-gradient(from 90deg,rgba(84, 136, 236, 1) 0deg,rgba(84, 137, 237, 0) 360deg);height:100%;width:100%;opacity:0.6"></div></foreignObject></g></g><path d="M46 25H45.3C45.3 36.2114 36.2114 45.3 25 45.3V46V46.7C36.9846 46.7 46.7 36.9846 46.7 25H46ZM25 46V45.3C13.7886 45.3 4.7 36.2114 4.7 25H4H3.3C3.3 36.9846 13.0154 46.7 25 46.7V46ZM4 25H4.7C4.7 13.7886 13.7886 4.7 25 4.7V4V3.3C13.0154 3.3 3.3 13.0154 3.3 25H4ZM25 4V4.7C36.2114 4.7 45.3 13.7886 45.3 25H46H46.7C46.7 13.0154 36.9846 3.3 25 3.3V4Z" data-figma-gradient-fill="{&#34;type&#34;:&#34;GRADIENT_ANGULAR&#34;,&#34;stops&#34;:[{&#34;color&#34;:{&#34;r&#34;:0.33011278510093689,&#34;g&#34;:0.53559678792953491,&#34;b&#34;:0.92788463830947876,&#34;a&#34;:1.0},&#34;position&#34;:0.0},{&#34;color&#34;:{&#34;r&#34;:0.32941177487373352,&#34;g&#34;:0.53725492954254150,&#34;b&#34;:0.92941176891326904,&#34;a&#34;:0.0},&#34;position&#34;:1.0}],&#34;transform&#34;:{&#34;m00&#34;:2.5717584698381913e-15,&#34;m01&#34;:-42.0,&#34;m02&#34;:46.0,&#34;m10&#34;:42.0,&#34;m11&#34;:2.5717584698381913e-15,&#34;m12&#34;:4.0},&#34;opacity&#34;:0.60000002384185791,&#34;blendMode&#34;:&#34;NORMAL&#34;,&#34;stopsVar&#34;:[{&#34;color&#34;:{&#34;r&#34;:0.33011278510093689,&#34;g&#34;:0.53559678792953491,&#34;b&#34;:0.92788463830947876,&#34;a&#34;:1.0},&#34;position&#34;:0.0},{&#34;color&#34;:{&#34;r&#34;:0.32941177487373352,&#34;g&#34;:0.53725492954254150,&#34;b&#34;:0.92941176891326904,&#34;a&#34;:0.0},&#34;position&#34;:1.0}],&#34;visible&#34;:true}" mask="url(#path-4-inside-2_8535_17069)"/>
<mask id="path-6-inside-3_8535_17069" fill="white">
<path d="M41 25C41 33.8366 33.8366 41 25 41C16.1634 41 9 33.8366 9 25C9 16.1634 16.1634 9 25 9C33.8366 9 41 16.1634 41 25Z"/>
</mask>
<g clip-path="url(#paint3_angular_8535_17069_clip_path)" data-figma-skip-parse="true" mask="url(#path-6-inside-3_8535_17069)"><g transform="matrix(0 0.016 -0.016 0 25 25)"><foreignObject x="-1062.5" y="-1062.5" width="2125" height="2125"><div xmlns="http://www.w3.org/1999/xhtml" style="background:conic-gradient(from 90deg,rgba(84, 136, 236, 0.7542) 0deg,rgba(84, 137, 237, 0) 271.271deg,rgba(84, 136, 236, 1) 271.598deg,rgba(84, 136, 236, 0.7542) 360deg);height:100%;width:100%;opacity:0.6"></div></foreignObject></g></g><path d="M41 25H40C40 33.2843 33.2843 40 25 40V41V42C34.3888 42 42 34.3888 42 25H41ZM25 41V40C16.7157 40 10 33.2843 10 25H9H8C8 34.3888 15.6112 42 25 42V41ZM9 25H10C10 16.7157 16.7157 10 25 10V9V8C15.6112 8 8 15.6112 8 25H9ZM25 9V10C33.2843 10 40 16.7157 40 25H41H42C42 15.6112 34.3888 8 25 8V9Z" data-figma-gradient-fill="{&#34;type&#34;:&#34;GRADIENT_ANGULAR&#34;,&#34;stops&#34;:[{&#34;color&#34;:{&#34;r&#34;:0.32941177487373352,&#34;g&#34;:0.53725492954254150,&#34;b&#34;:0.92941176891326904,&#34;a&#34;:0.0},&#34;position&#34;:0.75352960824966431},{&#34;color&#34;:{&#34;r&#34;:0.33011278510093689,&#34;g&#34;:0.53559678792953491,&#34;b&#34;:0.92788463830947876,&#34;a&#34;:1.0},&#34;position&#34;:0.75443762540817261}],&#34;transform&#34;:{&#34;m00&#34;:1.9594349641362686e-15,&#34;m01&#34;:-32.0,&#34;m02&#34;:41.0,&#34;m10&#34;:32.0,&#34;m11&#34;:1.9594349641362686e-15,&#34;m12&#34;:9.0},&#34;opacity&#34;:0.60000002384185791,&#34;blendMode&#34;:&#34;NORMAL&#34;,&#34;stopsVar&#34;:[{&#34;color&#34;:{&#34;r&#34;:0.32941177487373352,&#34;g&#34;:0.53725492954254150,&#34;b&#34;:0.92941176891326904,&#34;a&#34;:0.0},&#34;position&#34;:0.75352960824966431},{&#34;color&#34;:{&#34;r&#34;:0.33011278510093689,&#34;g&#34;:0.53559678792953491,&#34;b&#34;:0.92788463830947876,&#34;a&#34;:1.0},&#34;position&#34;:0.75443762540817261}],&#34;visible&#34;:true}" mask="url(#path-6-inside-3_8535_17069)"/>
<path d="M31.1138 33H19.8862C19.3968 33 19 32.6066 19 32.1209V16.889C19 16.4038 19.3968 16.0104 19.8862 16.01H24.6138V19.229V20.9905C24.6138 21.9633 25.4074 22.7519 26.3862 22.7519H28.159H32V29.7776V32.1209C32 32.6066 31.6032 33 31.1138 33ZM26.3862 21.8712C25.8968 21.8712 25.5 21.4769 25.5 20.9905V19.229V16L32 21.8712H28.159H26.3862Z" fill="url(#paint4_linear_8535_17069)"/>
<circle cx="40.5" cy="25.5" r="1.5" fill="#3861B0"/>
<circle cx="13.5" cy="3.5" r="1.5" fill="#1B2C4C"/>
<circle cx="24.5" cy="45.5" r="1.5" fill="#375EA6"/>
<defs>
<clipPath id="paint1_angular_8535_17069_clip_path"><path d="M50 25H49.3C49.3 38.4205 38.4205 49.3 25 49.3V50V50.7C39.1937 50.7 50.7 39.1937 50.7 25H50ZM25 50V49.3C11.5795 49.3 0.7 38.4205 0.7 25H0H-0.7C-0.7 39.1937 10.8063 50.7 25 50.7V50ZM0 25H0.7C0.7 11.5795 11.5795 0.7 25 0.7V0V-0.7C10.8063 -0.7 -0.7 10.8063 -0.7 25H0ZM25 0V0.7C38.4205 0.7 49.3 11.5795 49.3 25H50H50.7C50.7 10.8063 39.1937 -0.7 25 -0.7V0Z"/></clipPath><clipPath id="paint2_angular_8535_17069_clip_path"><path d="M46 25H45.3C45.3 36.2114 36.2114 45.3 25 45.3V46V46.7C36.9846 46.7 46.7 36.9846 46.7 25H46ZM25 46V45.3C13.7886 45.3 4.7 36.2114 4.7 25H4H3.3C3.3 36.9846 13.0154 46.7 25 46.7V46ZM4 25H4.7C4.7 13.7886 13.7886 4.7 25 4.7V4V3.3C13.0154 3.3 3.3 13.0154 3.3 25H4ZM25 4V4.7C36.2114 4.7 45.3 13.7886 45.3 25H46H46.7C46.7 13.0154 36.9846 3.3 25 3.3V4Z"/></clipPath><clipPath id="paint3_angular_8535_17069_clip_path"><path d="M41 25H40C40 33.2843 33.2843 40 25 40V41V42C34.3888 42 42 34.3888 42 25H41ZM25 41V40C16.7157 40 10 33.2843 10 25H9H8C8 34.3888 15.6112 42 25 42V41ZM9 25H10C10 16.7157 16.7157 10 25 10V9V8C15.6112 8 8 15.6112 8 25H9ZM25 9V10C33.2843 10 40 16.7157 40 25H41H42C42 15.6112 34.3888 8 25 8V9Z"/></clipPath><radialGradient id="paint0_radial_8535_17069" cx="0" cy="0" r="1" gradientUnits="userSpaceOnUse" gradientTransform="translate(25 25) scale(23)">
<stop stop-color="#0E61FF"/>
<stop offset="1" stop-color="#0E61FF" stop-opacity="0"/>
</radialGradient>
<linearGradient id="paint4_linear_8535_17069" x1="25.5" y1="16" x2="25.5" y2="33" gradientUnits="userSpaceOnUse">
<stop stop-color="white"/>
<stop offset="1" stop-color="#64C7FF"/>
</linearGradient>
</defs>
</svg>
